<svg xmlns="http://www.w3.org/2000/svg" viewBox="0 0 800 600">
  <defs>
    <linearGradient id="sky" x1="0" y1="0" x2="0" y2="1">
      <stop offset="0" stop-color="#7f9cc9"/>
      <stop offset="0.6" stop-color="#d7b8c9"/>
      <stop offset="1" stop-color="#f4cfb1"/>
    </linearGradient>
    <linearGradient id="water" x1="0" y1="0" x2="0" y2="1">
      <stop offset="0" stop-color="#8d9cbc"/>
      <stop offset="1" stop-color="#5e6d8e"/>
    </linearGradient>
  </defs>
  <rect width="800" height="420" fill="url(#sky)"/>
  <g fill="#6c7898">
    <rect x="40" y="280" width="60" height="140"/><rect x="110" y="240" width="46" height="180"/><rect x="165" y="300" width="70" height="120"/>
    <rect x="245" y="200" width="40" height="220"/><rect x="295" y="260" width="64" height="160"/><rect x="370" y="170" width="52" height="250"/>
    <rect x="430" y="230" width="70" height="190"/><rect x="510" y="290" width="54" height="130"/><rect x="575" y="210" width="44" height="210"/>
    <rect x="628" y="270" width="72" height="150"/><rect x="710" y="310" width="60" height="110"/>
  </g>
  <g fill="#f9e1a8" opacity="0.8">
    <rect x="378" y="190" width="8" height="8"/><rect x="398" y="210" width="8" height="8"/><rect x="378" y="250" width="8" height="8"/>
    <rect x="253" y="230" width="8" height="8"/><rect x="583" y="240" width="8" height="8"/><rect x="603" y="280" width="8" height="8"/>
    <rect x="440" y="260" width="8" height="8"/><rect x="470" y="300" width="8" height="8"/><rect x="120" y="270" width="8" height="8"/>
  </g>
  <rect y="420" width="800" height="180" fill="url(#water)"/>
  <g fill="#c7cde0" opacity="0.5">
    <rect x="60" y="440" width="140" height="3"/><rect x="300" y="460" width="180" height="3"/><rect x="560" y="450" width="150" height="3"/>
    <rect x="160" y="500" width="120" height="3"/><rect x="420" y="520" width="160" height="3"/>
  </g>
</svg>
